<svg xmlns="http://www.w3.org/2000/svg" viewBox="0 0 1000 700" width="1000" height="700">
  <defs>
    <marker id="arrowA" markerWidth="10" markerHeight="7" refX="9" refY="3.5" orient="auto">
      <polygon points="0 0, 10 3.5, 0 7" fill="#7c3aed"/>
    </marker>
    <marker id="arrowB" markerWidth="10" markerHeight="7" refX="9" refY="3.5" orient="auto">
      <polygon points="0 0, 10 3.5, 0 7" fill="#10b981"/>
    </marker>
    <marker id="arrowC" markerWidth="10" markerHeight="7" refX="9" refY="3.5" orient="auto">
      <polygon points="0 0, 10 3.5, 0 7" fill="#2563eb"/>
    </marker>
    <marker id="arrowE" markerWidth="10" markerHeight="7" refX="9" refY="3.5" orient="auto">
      <polygon points="0 0, 10 3.5, 0 7" fill="#f97316"/>
    </marker>
    <marker id="arrowF" markerWidth="10" markerHeight="7" refX="9" refY="3.5" orient="auto">
      <polygon points="0 0, 10 3.5, 0 7" fill="#7c3aed"/>
    </marker>
    <marker id="arrowG" markerWidth="10" markerHeight="7" refX="9" refY="3.5" orient="auto">
      <polygon points="0 0, 10 3.5, 0 7" fill="#ef4444"/>
    </marker>
    <marker id="arrowH" markerWidth="10" markerHeight="7" refX="9" refY="3.5" orient="auto">
      <polygon points="0 0, 10 3.5, 0 7" fill="#6b7280"/>
    </marker>
    
    
    <style>
    text { font-family: 'Helvetica Neue', Helvetica, Arial, 'PingFang SC', 'Microsoft YaHei', 'Microsoft JhengHei', 'SimHei', sans-serif; }
    .title { font-size: 30px; font-weight: 700; fill: #111827; }
    .subtitle { font-size: 14px; font-weight: 500; fill: #6b7280; }
    .section { font-size: 13px; font-weight: 700; fill: #2563eb; letter-spacing: 1.4px; }
    .section-sub { font-size: 12px; font-weight: 500; fill: #94a3b8; }
    .node-title { font-size: 18px; font-weight: 700; fill: #111827; }
    .node-sub { font-size: 12px; font-weight: 500; fill: #6b7280; }
    .node-type { font-size: 12px; font-weight: 700; fill: #9ca3af; letter-spacing: 0.08em; }
    .arrow-label { font-size: 12px; font-weight: 600; fill: #6b7280; }
    .legend { font-size: 12px; font-weight: 500; fill: #6b7280; }
    .footnote { font-size: 12px; font-weight: 500; fill: #94a3b8; }
    </style>
  </defs>
  <rect width="1000.0" height="700.0" fill="#ffffff"/>
  <text x="500.0" y="56" text-anchor="middle" class="title">🎯 单词消消乐 — Use Case 图</text>
  <text x="500.0" y="82" text-anchor="middle" class="subtitle">女儿自己动手做的单词配对游戏 App</text>
  <rect x="320.0" y="100.0" width="640.0" height="560.0" rx="16.0" fill="#f8fafc" stroke="#e2e8f0" stroke-width="1.4" stroke-dasharray="6 5"/>
  <text x="338.0" y="124.0" class="section">单词消消乐 APP</text>
  <text x="338.0" y="144.0" class="section-sub">PWA · iPad / iPhone</text>
  <path d="M 120.0,380.0 L 480.0,210.0" fill="none" stroke="#7c3aed" stroke-width="2.4" marker-end="url(#arrowA)"/>
  <path d="M 120.0,380.0 L 360.0,265.0" fill="none" stroke="#7c3aed" stroke-width="2.4" marker-end="url(#arrowA)"/>
  <path d="M 120.0,380.0 L 660.0,265.0" fill="none" stroke="#7c3aed" stroke-width="2.4" marker-end="url(#arrowA)"/>
  <path d="M 120.0,380.0 L 360.0,355.0" fill="none" stroke="#7c3aed" stroke-width="2.4" marker-end="url(#arrowA)"/>
  <path d="M 120.0,380.0 L 660.0,355.0" fill="none" stroke="#7c3aed" stroke-width="2.4" marker-end="url(#arrowA)"/>
  <path d="M 120.0,380.0 L 360.0,445.0" fill="none" stroke="#7c3aed" stroke-width="2.4" marker-end="url(#arrowA)"/>
  <path d="M 120.0,380.0 L 660.0,445.0" fill="none" stroke="#7c3aed" stroke-width="2.4" marker-end="url(#arrowA)"/>
  <path d="M 120.0,380.0 L 500.0,535.0" fill="none" stroke="#7c3aed" stroke-width="2.4" marker-end="url(#arrowA)"/>
  <rect x="40.0" y="340.0" width="80.0" height="80.0" rx="10.0" fill="#ffffff" stroke="#d1d5db" stroke-width="2.0"/>
  <text x="80.0" y="380.0" text-anchor="middle" class="node-title">👧 女儿
玩家</text>
  <rect x="360.0" y="140.0" width="240.0" height="70.0" rx="10.0" fill="#eef2ff" stroke="#818cf8" stroke-width="2.0"/>
  <text x="480.0" y="175.0" text-anchor="middle" class="node-title">开始游戏</text>
  <rect x="360.0" y="230.0" width="240.0" height="70.0" rx="10.0" fill="#ecfdf5" stroke="#34d399" stroke-width="2.0"/>
  <text x="480.0" y="265.0" text-anchor="middle" class="node-title">翻转卡片配对</text>
  <rect x="660.0" y="230.0" width="240.0" height="70.0" rx="10.0" fill="#fdf2f8" stroke="#f472b6" stroke-width="2.0"/>
  <text x="780.0" y="265.0" text-anchor="middle" class="node-title">学习单词</text>
  <rect x="360.0" y="320.0" width="240.0" height="70.0" rx="10.0" fill="#fffbeb" stroke="#fbbf24" stroke-width="2.0"/>
  <text x="480.0" y="355.0" text-anchor="middle" class="node-title">查看闯关进度</text>
  <rect x="660.0" y="320.0" width="240.0" height="70.0" rx="10.0" fill="#eff6ff" stroke="#60a5fa" stroke-width="2.0"/>
  <text x="780.0" y="355.0" text-anchor="middle" class="node-title">选择难度/单元</text>
  <rect x="360.0" y="410.0" width="240.0" height="70.0" rx="10.0" fill="#f5f3ff" stroke="#a78bfa" stroke-width="2.0"/>
  <text x="480.0" y="445.0" text-anchor="middle" class="node-title">听发音（Web Speech）</text>
  <rect x="660.0" y="410.0" width="240.0" height="70.0" rx="10.0" fill="#fef3c7" stroke="#f59e0b" stroke-width="2.0"/>
  <text x="780.0" y="445.0" text-anchor="middle" class="node-title">赚星星⭐攒金币</text>
  <rect x="500.0" y="500.0" width="240.0" height="70.0" rx="10.0" fill="#f0fdfa" stroke="#2dd4bf" stroke-width="2.0"/>
  <text x="620.0" y="535.0" text-anchor="middle" class="node-title">装饰收集</text>
  <rect x="272.0" y="265.0" width="56" height="20" rx="6" fill="#ffffff" opacity="0.94"/>
  <text x="300.0" y="279.0" text-anchor="middle" class="arrow-label">打开 App</text>
  <rect x="219.0" y="292.5" width="42" height="20" rx="6" fill="#ffffff" opacity="0.94"/>
  <text x="240.0" y="306.5" text-anchor="middle" class="arrow-label">点击卡片</text>
  <rect x="369.0" y="308.5" width="42" height="20" rx="6" fill="#ffffff" opacity="0.94"/>
  <text x="390.0" y="322.5" text-anchor="middle" class="arrow-label">浏览词库</text>
  <rect x="219.0" y="337.5" width="42" height="20" rx="6" fill="#ffffff" opacity="0.94"/>
  <text x="240.0" y="351.5" text-anchor="middle" class="arrow-label">查看进度</text>
  <rect x="369.0" y="353.5" width="42" height="20" rx="6" fill="#ffffff" opacity="0.94"/>
  <text x="390.0" y="367.5" text-anchor="middle" class="arrow-label">选择难度</text>
  <rect x="222.0" y="382.5" width="36" height="20" rx="6" fill="#ffffff" opacity="0.94"/>
  <text x="240.0" y="396.5" text-anchor="middle" class="arrow-label">点发音</text>
  <rect x="372.0" y="398.5" width="36" height="20" rx="6" fill="#ffffff" opacity="0.94"/>
  <text x="390.0" y="412.5" text-anchor="middle" class="arrow-label">闯关</text>
  <rect x="292.0" y="427.5" width="36" height="20" rx="6" fill="#ffffff" opacity="0.94"/>
  <text x="310.0" y="441.5" text-anchor="middle" class="arrow-label">买装饰</text>
  <line x1="878.0" y1="644.0" x2="908.0" y2="644.0" stroke="#7c3aed" stroke-width="2.4" marker-end="url(#arrowA)"/>
  <text x="918.0" y="648.0" class="legend">玩家操作</text>
</svg>